<?xml version="1.0" encoding="utf-8"?>
<!-- Generator: Adobe Illustrator 24.0.2, SVG Export Plug-In . SVG Version: 6.00 Build 0)  -->
<svg version="1.1" id="Layer_1" xmlns="http://www.w3.org/2000/svg" xmlns:xlink="http://www.w3.org/1999/xlink" x="0px" y="0px"
	 viewBox="0 0 45 45" style="enable-background:new 0 0 45 45;" xml:space="preserve">
<style type="text/css">
	.st0{fill:#A5B1AA;}
</style>
<title>Page 1 Copy 3</title>
<desc>Created with Sketch.</desc>
<g id="Jobb">
	<g id="Case-Copy-6" transform="translate(-305.000000, -4862.000000)">
		<g id="Page-1-Copy-3" transform="translate(305.000000, 4862.000000)">
			<polygon id="Fill-1" class="st0" points="31.7,17.4 31.7,13.8 31.7,13.3 31.2,13.3 27.6,13.3 27.6,17.4 			"/>
			<g id="Group-9">
				<path id="Fill-2" class="st0" d="M22.4,27.1c2.4,0,4.3-1.9,4.3-4.3c0-0.9-0.3-1.8-0.8-2.5c-0.8-1.1-2-1.8-3.5-1.8
					c-1.4,0-2.7,0.7-3.5,1.8c-0.5,0.7-0.8,1.6-0.8,2.5C18.1,25.2,20,27.1,22.4,27.1"/>
				<g id="Group-6">
					<path id="Fill-4" class="st0" d="M34.5,20.4v9.9c0,2.6-2.1,4.7-4.7,4.7H15c-2.6,0-4.7-2.1-4.7-4.7v-9.9v-4.9
						c0-2.6,2.1-4.7,4.7-4.7h14.9c2.6,0,4.7,2.1,4.7,4.7L34.5,20.4L34.5,20.4z M22.5,0.2c-12.3,0-22.3,10-22.3,22.3
						s10,22.3,22.3,22.3s22.3-10,22.3-22.3S34.8,0.2,22.5,0.2L22.5,0.2z"/>
				</g>
				<path id="Fill-7" class="st0" d="M29,22.8c0,3.7-3,6.6-6.6,6.6s-6.6-3-6.6-6.6c0-0.9,0.2-1.7,0.5-2.5h-3.6v9.9
					c0,1.3,1,2.3,2.3,2.3h14.9c1.3,0,2.3-1,2.3-2.3v-9.9h-3.6C28.8,21.1,29,22,29,22.8"/>
			</g>
		</g>
	</g>
</g>
</svg>
