<?xml version="1.0" encoding="utf-8"?>
<!-- Generator: Adobe Illustrator 24.0.2, SVG Export Plug-In . SVG Version: 6.00 Build 0)  -->
<svg version="1.1" id="Layer_1" xmlns="http://www.w3.org/2000/svg" xmlns:xlink="http://www.w3.org/1999/xlink" x="0px" y="0px"
	 viewBox="0 0 120 120" style="enable-background:new 0 0 120 120;" xml:space="preserve">
<style type="text/css">
	.st0{fill:#A5B1AA;}
</style>
<g>
	<path class="st0" d="M60,0C26.9,0,0,26.9,0,60c0,33.1,26.9,60,60,60c33.1,0,60-26.9,60-60C120,26.8,93.1,0,60,0L60,0z M45,89.1H30
		V36.5h15C45,36.5,45,89.1,45,89.1z M38,33.4c-3.9,0-7-3.1-7-7.1c0-3.9,3.2-7,7-7c3.9,0,7,3.2,7,7C45,30.2,41.9,33.4,38,33.4
		L38,33.4z M97.5,89.1h-15V56.6c0-3.8-1.1-6.5-5.7-6.5c-7.8,0-9.3,6.5-9.3,6.5v32.4h-15V36.5h15v5c2.2-1.6,7.5-5,15-5
		c4.9,0,15,2.9,15,20.5L97.5,89.1L97.5,89.1z"/>
</g>
</svg>
