<?xml version="1.0" encoding="utf-8"?>
<!-- Generator: Adobe Illustrator 24.0.2, SVG Export Plug-In . SVG Version: 6.00 Build 0)  -->
<svg version="1.1" id="Layer_1" xmlns="http://www.w3.org/2000/svg" xmlns:xlink="http://www.w3.org/1999/xlink" x="0px" y="0px"
	 viewBox="0 0 120 120" style="enable-background:new 0 0 120 120;" xml:space="preserve">
<style type="text/css">
	.st0{fill:#A5B1AA;}
</style>
<g>
	<path class="st0" d="M60,0C26.9,0,0,26.9,0,60c0,33.1,26.9,60,60,60c33.1,0,60-26.9,60-60C120,26.8,93.1,0,60,0L60,0z M89.9,46.5
		l0,1.9c0,19.5-14.9,42-42,42c-8.3,0-16.1-2.4-22.6-6.7c1.1,0.2,2.3,0.2,3.5,0.2c6.9,0,13.3-2.4,18.3-6.3
		c-6.5-0.1-11.9-4.4-13.8-10.3c0.9,0.2,1.8,0.3,2.8,0.3c1.4,0,2.7-0.2,3.9-0.5c-6.7-1.4-11.8-7.3-11.8-14.5v-0.2
		c2,1.1,4.2,1.8,6.7,1.8c-4-2.6-6.6-7.2-6.6-12.3c0-2.7,0.7-5.3,2-7.4c7.2,8.9,18.2,14.8,30.4,15.4c-0.3-1.1-0.4-2.2-0.4-3.4
		c0-8.1,6.6-14.8,14.8-14.8c4.2,0,8.1,1.8,10.8,4.7c3.3-0.7,6.5-1.9,9.4-3.6c-1.1,3.5-3.4,6.3-6.5,8.2c3-0.4,5.9-1.2,8.5-2.3
		C95.2,41.9,92.7,44.5,89.9,46.5L89.9,46.5z"/>
</g>
</svg>
